<svg xmlns="http://www.w3.org/2000/svg" viewBox="0 0 60 60">
    <style>
        .st0, .st1 { fill-rule:evenodd; clip-rule:evenodd; fill:#fefefe; }
        .st1 { fill: #ffff; }
    </style>
    <g>
        <path d="M 13.2 14.1 C 9.6 17.8 7.8 22.7 7.8 27.5 C 7.8 31.9 9.3 36.3 12.3 39.9 L 11 40.2 C 8.1 36.5 6.6 32 6.6 27.5 C 6.6 22.4 8.5 17.3 12.3 13.3 L 9.6 10.6 L 10.4 9.8 L 13.1 12.5 C 17.1 9 22 7.2 27 7.2 C 31.6 7.2 36.2 8.7 39.9 11.8 L 39.6 13 C 36.1 9.9 31.5 8.3 27 8.3 C 22.3 8.3 17.6 10 14 13.4 L 16.7 16.1 C 19.6 13.5 23.3 12.1 27 12.1 C 30.8 12.1 34.5 13.5 37.5 16.2 L 39.4 14.3 C 39.3 15 39.1 15.6 39 16.3 L 38.3 17 L 38.8 17.5 C 38.7 18 38.6 18.4 38.5 18.9 C 38.2 18.5 37.9 18.1 37.5 17.8 L 34.8 20.5 C 36 21.8 36.7 23.3 37.1 24.9 C 36.8 26 36.6 27.1 36.3 28.1 L 36.3 27.5 C 36.3 25.1 35.4 22.7 33.6 20.9 C 31.8 19.1 29.4 18.2 27 18.2 C 24.6 18.2 22.2 19.1 20.4 20.9 C 18.6 22.7 17.7 25.1 17.7 27.5 C 17.7 29.9 18.6 32.3 20.4 34.1 C 22.1 35.8 24.2 36.7 26.4 36.8 C 25.5 37 24.7 37.2 23.8 37.4 C 22.4 37 21.2 36.2 20 35.2 L 17.3 38 C 17.6 38.2 17.8 38.5 18.1 38.7 C 17.6 38.8 17.2 38.9 16.7 39 L 16.5 38.8 L 16.2 39.1 C 15.5 39.2 14.9 39.4 14.2 39.5 L 15.7 38 C 12.9 35 11.6 31.3 11.6 27.5 C 11.6 23.7 13 19.8 15.9 16.8 L 13.2 14.1 L 13.2 14.1 Z M 16.5 37.2 L 19.2 34.5 C 17.4 32.5 16.5 30 16.5 27.5 C 16.5 24.9 17.4 22.3 19.3 20.3 L 16.6 17.6 C 14 20.4 12.6 23.9 12.6 27.5 C 12.7 31 14 34.5 16.5 37.2 Z M 17.5 16.9 L 20.2 19.6 C 22.2 17.9 24.6 17.1 27 17.1 C 29.5 17.1 32 18 34 19.8 L 36.7 17.1 C 34.059 14.659 30.596 13.302 27 13.3 C 23.6 13.2 20.2 14.4 17.5 16.9 L 17.5 16.9 Z"
              class="st0"/>
        <path d="M30.8 35.5v.2c-9.7 2.8-19.7 4.2-29.4 6.7-1.5.4-1.3 2.3-1.4 3.5 0 .3-.1 1.6-.1 1.8 0 .8.5 1.5 1.2 1.7 1.2.3 11.3 2.9 11.8 2.9.9 0 .6.1 1.3-.5 6.2-5 11.2-8.3 17.8-12.7L18.3 55.7c-1 1.2.7 1.9 1.5 2.5l1.8 1.1c.5.5 2.5-.5 3.1-.7.9-.3 6-2.2 6.4-2.5.3-.1.5-.4.6-.7l4-15.9 1-.2c4.1 4.1 8.1 8.3 12 12.6l.4.4 6.8 7.2c.5.5 1.8 0 2.4-.1.3-.1.5-.2.6-.3.1-.1.3-.3.3-.6.1-.6.6-2 .1-2.4l-7.2-6.8-.4-.4c-4.3-3.9-8.6-7.9-12.6-12l.2-1 15.9-4c.3-.1.6-.3.7-.6.3-.4 2.2-5.5 2.5-6.4.2-.6 1.2-2.6.7-3.1L58 19.9c-.5-.8-1.3-2.5-2.5-1.5L38.9 32.3c4.4-6.6 7.8-11.5 12.7-17.8.6-.7.4-.4.5-1.3 0-.5-2.5-10.6-2.9-11.8-.2-.7-1-1.2-1.7-1.2-.2-.1-1.5.1-1.8.1-1.2.1-3.1-.1-3.5 1.4-2.5 9.7-3.9 19.7-6.7 29.4h-.2l.2-1.5c0-.5-.2-.8-.6-.9l-2.4-.3c-.8-.1-1.7.6-2.6 1.6l-2.5-2.5-.3.3 2.5 2.5c-.9.9-1.6 1.8-1.6 2.6l.3 2.4c.1.4.4.6.9.6l1.6-.4z"
              class="st1"/>
        <path d="m58.4 58.6-1.8.4-12.3-12.5-7.4-7.7-1.5.3-4.6 16-8.6 3.2-3-1.9 14.3-17.8-.7-.4-.3-.2-19.2 13.3-11.6-3.5.2-3.8 29.7-7.9-.3-1.5-2 .6-.4-3.2 1.4-1.5 1.5-1.5 3.3.4-.6 2.1 1.5.2L43.9 2l3.7-.1 3.5 11.6-13.2 19.1.2.4.3.6 17.9-14.3 1.9 3.1-3.2 8.5-16 4.6-.3 1.5 7.7 7.4 12.5 12.3z"
              class="st1"/>
    </g>
</svg>